<?xml version="1.0" encoding="utf-8"?>
<!-- Generator: Adobe Illustrator 22.1.0, SVG Export Plug-In . SVG Version: 6.00 Build 0)  -->
<svg version="1.1" id="Layer_1" xmlns="http://www.w3.org/2000/svg" xmlns:xlink="http://www.w3.org/1999/xlink" x="0px" y="0px"
	 viewBox="0 0 55 55" style="enable-background:new 0 0 55 55;" xml:space="preserve">
<style type="text/css">
	.st0{fill:#CCCCCC;}
</style>
<g>
	<path class="st0" d="M20,13.9v3.9c0,0.5,0,1.1-0.4,1.5S18.9,20,18.4,20h-6.4c-0.5,0-1-0.3-1.4-0.7s-0.6-1-0.6-1.5v-3.9
		c0-0.5,0.2-1,0.6-1.4c0.4-0.4,0.8-0.6,1.4-0.6h6.4c0.5,0,0.8,0.2,1.2,0.6C20,12.9,20,13.4,20,13.9z M20,24.2v3.9c0,0.5,0,1-0.4,1.4
		c-0.4,0.4-0.7,0.6-1.2,0.6h-6.4c-0.5,0-1-0.2-1.4-0.6c-0.4-0.4-0.6-0.8-0.6-1.4v-3.9c0-0.5,0.2-1.1,0.6-1.5s0.8-0.7,1.4-0.7h6.4
		c0.5,0,0.8,0.3,1.2,0.7S20,23.7,20,24.2z M20,33.7v4.4c0,0.6,0,1-0.4,1.4s-0.7,0.5-1.2,0.5h-6.4c-0.5,0-1-0.1-1.4-0.5
		C10.2,39,10,38.7,10,38.1v-4.4c0-0.6,0.2-0.9,0.6-1.3c0.4-0.4,0.8-0.4,1.4-0.4h6.4c0.5,0,0.8,0,1.2,0.4C20,32.8,20,33,20,33.7z
		 M33,13.9v3.9c0,0.5-0.1,1.1-0.5,1.5S31.8,20,31.2,20h-6.4c-0.5,0-0.9-0.3-1.3-0.7s-0.5-1-0.5-1.5v-3.9c0-0.5,0.1-1,0.5-1.4
		c0.4-0.4,0.8-0.6,1.3-0.6h6.4c0.5,0,0.9,0.2,1.3,0.6C32.9,12.9,33,13.4,33,13.9z M33,24.2v3.9c0,0.5-0.1,1-0.5,1.4
		c-0.4,0.4-0.8,0.6-1.3,0.6h-6.4c-0.5,0-0.9-0.2-1.3-0.6c-0.4-0.4-0.5-0.8-0.5-1.4v-3.9c0-0.5,0.1-1.1,0.5-1.5s0.8-0.7,1.3-0.7h6.4
		c0.5,0,0.9,0.3,1.3,0.7S33,23.7,33,24.2z M33,33.7v4.4c0,0.6-0.1,1-0.5,1.4s-0.8,0.5-1.3,0.5h-6.4c-0.5,0-0.9-0.1-1.3-0.5
		C23.1,39,23,38.7,23,38.1v-4.4c0-0.6,0.1-0.9,0.5-1.3c0.4-0.4,0.8-0.4,1.3-0.4h6.4c0.5,0,0.9,0,1.3,0.4C32.9,32.8,33,33,33,33.7z
		 M46,13.9v3.9c0,0.5-0.2,1.1-0.6,1.5S44.6,20,44.1,20h-6.4c-0.5,0-0.8-0.3-1.2-0.7s-0.4-1-0.4-1.5v-3.9c0-0.5,0-1,0.4-1.4
		c0.4-0.4,0.7-0.6,1.2-0.6h6.4c0.5,0,1,0.2,1.4,0.6C45.8,12.9,46,13.4,46,13.9z M46,24.2v3.9c0,0.5-0.2,1-0.6,1.4
		c-0.4,0.4-0.8,0.6-1.4,0.6h-6.4c-0.5,0-0.8-0.2-1.2-0.6C36,29.1,36,28.6,36,28.1v-3.9c0-0.5,0-1.1,0.4-1.5s0.7-0.7,1.2-0.7h6.4
		c0.5,0,1,0.3,1.4,0.7S46,23.7,46,24.2z M46,33.7v4.4c0,0.6-0.2,1-0.6,1.4s-0.8,0.5-1.4,0.5h-6.4c-0.5,0-0.8-0.1-1.2-0.5
		C36,39,36,38.7,36,38.1v-4.4c0-0.6,0-0.9,0.4-1.3c0.4-0.4,0.7-0.4,1.2-0.4h6.4c0.5,0,1,0,1.4,0.4C45.8,32.8,46,33,46,33.7z"/>
</g>
</svg>
